<svg id="图层_1" data-name="图层 1" xmlns="http://www.w3.org/2000/svg" viewBox="0 0 331.63 333.81"><defs><style>.cls-1{fill:#666;}.cls-2{fill:#0071bc;}</style></defs><title>logo-new</title><path class="cls-1" d="M482.51,269.77,377.07,208.89a45.16,45.16,0,0,0-45.16,0l-128,73.91v.14l.1.06,60,34,.32.2,90.17-52.06,90.59,52.3V422.05l-90.59,52.3-90.59-52.3-59.69,34.82,127.7,73.73a45.16,45.16,0,0,0,45.16,0l105.44-60.87a45.16,45.16,0,0,0,22.58-39.11V308.88A45.16,45.16,0,0,0,482.51,269.77Z" transform="translate(-173.46 -202.84)"/><polygon class="cls-2" points="117.36 166.91 0 234.67 0 99.16 117.36 166.91"/></svg>